# xmcd
#
# Track frame offsets:
#	150
#	11807
#	23575
#	35718
#	48697
#	61978
#	74385
#	87023
#	99646
#	112370
#	125406
#	138779
#
# Disc length: 2051 seconds
#
# Revision: 2
# Processed by: cddbd v1.5.2PL0 Copyright (c) Steve Scherf et al.
# Submitted via: EasyCDDAExtractor 10.0.2.1
#
DISCID=a808010c
DTITLE=Diana Ross - Every Great #1
DYEAR=1992
DGENRE=Blues
TTITLE0=Where Did Our Love Go
TTITLE1=Baby Love
TTITLE2=Come See About Me
TTITLE3=Stop! In The Name Of Love
TTITLE4=Back In My Arms Again
TTITLE5=I Hear A Symphony
TTITLE6=You Can't Hurry Love
TTITLE7=You Keep Me Hangin' On
TTITLE8=Love Is Here And Now You're Gone
TTITLE9=The Happening
TTITLE10=Love Child
TTITLE11=Someday We'll Be Together
EXTD=
EXTT0=
EXTT1=
EXTT2=
EXTT3=
EXTT4=
EXTT5=
EXTT6=
EXTT7=
EXTT8=
EXTT9=
EXTT10=
EXTT11=
PLAYORDER=
